# xmcd
#
# Track frame offsets: 
#        150
#        12930
#        25980
#        45822
#        60990
#        78035
#        90122
#        108657
#        126480
#        141155
#
# Disc length: 2080 seconds
#
# Revision: 4
# Processed by: cddbd v1.5.2PL0 Copyright (c) Steve Scherf et al.
# Submitted via: ExactAudioCopy v0.99pb5
#
DISCID=6e081e0a
DTITLE=John Michael Montgomery - Kickin' It Up
DYEAR=1994
DGENRE=Country
TTITLE0=Be My Baby Tonight
TTITLE1=Full-Time Love
TTITLE2=I Swear
TTITLE3=She Don't Need a Band to Dance
TTITLE4=All In My Heart
TTITLE5=Friday at Five
TTITLE6=Rope the Moon
TTITLE7=If You've Got Love
TTITLE8=Oh How She Shines
TTITLE9=Kick It Up
EXTD=
EXTT0=
EXTT1=
EXTT2=
EXTT3=
EXTT4=
EXTT5=
EXTT6=
EXTT7=
EXTT8=
EXTT9=
PLAYORDER=
